<svg aria-hidden="true" style="position: absolute; width: 0; height: 0; overflow: hidden;" version="1.1" xmlns="http://www.w3.org/2000/svg" xmlns:xlink="http://www.w3.org/1999/xlink">
<defs>
<symbol id="icon-angle-right" viewBox="0 0 32 32">
<path d="M19.159 16.767l0.754-0.754-6.035-6.035-0.754 0.754 5.281 5.281-5.256 5.256 0.754 0.754 3.013-3.013z"></path>
</symbol>
<symbol id="icon-board" viewBox="0 0 34 32">
<path d="M0.457 30.514c-0.229-0.8-0.343-7.886-0.229-15.771l0.343-14.171h29.714l0.343 3.2c0.229 1.714 1.029 3.086 2.057 3.086 0.914 0 1.6 1.029 1.6 2.286s-0.8 2.286-1.714 2.286c-0.914 0-1.714 0.571-1.714 1.143 0 0.686 0.8 1.143 1.714 1.143s1.714 1.029 1.714 2.286c0 1.257-0.8 2.286-1.714 2.286s-1.714 0.571-1.714 1.143c0 0.686 0.8 1.143 1.714 1.143s1.714 1.029 1.714 2.286c0 1.257-0.686 2.286-1.6 2.286-1.029 0-1.829 1.371-2.057 3.2l-0.343 3.086-14.629 0.343c-11.314 0.229-14.743 0-15.2-1.257zM27.429 16v-11.429h-24v22.857h24v-11.429z"></path>
<path d="M6.857 21.143c0-3.886 0.114-4 4.571-4s4.571 0.114 4.571 4c0 3.886-0.114 4-4.571 4s-4.571-0.114-4.571-4z"></path>
<path d="M17.143 19.429c0-5.6 0.114-5.714 3.429-5.714s3.429 0.114 3.429 5.714c0 5.6-0.114 5.714-3.429 5.714s-3.429-0.114-3.429-5.714z"></path>
<path d="M6.857 11.429v-4.571h9.143v9.143h-9.143v-4.571z"></path>
<path d="M17.143 9.714c0-2.4 0.571-2.857 3.429-2.857s3.429 0.457 3.429 2.857c0 2.4-0.571 2.857-3.429 2.857s-3.429-0.457-3.429-2.857z"></path>
</symbol>
<symbol id="icon-android" viewBox="0 0 32 32">
<path d="M4.342 10.435h-0.082c-1.051 0-1.908 0.86-1.908 1.908v8.306c0 1.052 0.857 1.909 1.908 1.909h0.083c1.051 0 1.908-0.86 1.908-1.909v-8.306c-0.001-1.048-0.859-1.908-1.909-1.908z"></path>
<path d="M7.163 23.853c0 0.965 0.788 1.75 1.753 1.75h1.873v4.486c0 1.054 0.86 1.91 1.908 1.91h0.082c1.052 0 1.91-0.858 1.91-1.91v-4.486h2.618v4.486c0 1.054 0.862 1.91 1.91 1.91h0.081c1.052 0 1.909-0.858 1.909-1.91v-4.486h1.875c0.963 0 1.752-0.786 1.752-1.75v-13.114h-17.671v13.114z"></path>
<path d="M20.401 2.786l1.488-2.297c0.096-0.145 0.053-0.343-0.093-0.437-0.145-0.096-0.343-0.056-0.437 0.093l-1.543 2.376c-1.157-0.474-2.45-0.741-3.815-0.741-1.366 0-2.656 0.266-3.817 0.741l-1.54-2.376c-0.094-0.149-0.294-0.189-0.44-0.093-0.146 0.094-0.189 0.292-0.093 0.437l1.489 2.297c-2.685 1.316-4.496 3.796-4.496 6.641 0 0.175 0.011 0.347 0.026 0.518h17.741c0.015-0.171 0.025-0.343 0.025-0.518 0-2.845-1.812-5.325-4.496-6.641zM11.887 6.899c-0.471 0-0.854-0.38-0.854-0.853s0.383-0.851 0.854-0.851c0.474 0 0.854 0.378 0.854 0.851s-0.383 0.853-0.854 0.853zM20.112 6.899c-0.471 0-0.854-0.38-0.854-0.853s0.383-0.851 0.854-0.851c0.473 0 0.853 0.378 0.853 0.851s-0.38 0.853-0.853 0.853z"></path>
<path d="M27.739 10.435h-0.079c-1.051 0-1.91 0.86-1.91 1.908v8.306c0 1.052 0.861 1.909 1.91 1.909h0.081c1.052 0 1.908-0.86 1.908-1.909v-8.306c0-1.048-0.858-1.908-1.909-1.908z"></path>
</symbol>
<symbol id="icon-apple" viewBox="0 0 32 32">
<path d="M4.274 11.763c-2.705 4.695-0.986 11.819 2.006 16.139 1.493 2.16 3.005 4.098 5.076 4.098 0.039 0 0.078-0.001 0.118-0.002 0.973-0.039 1.676-0.338 2.356-0.628 0.763-0.325 1.552-0.662 2.79-0.662 1.178 0 1.929 0.325 2.656 0.64 0.716 0.31 1.454 0.631 2.545 0.61 2.333-0.043 3.765-2.135 5.028-3.981 1.319-1.927 1.98-3.798 2.203-4.513l0.009-0.028c0.043-0.127-0.018-0.266-0.139-0.322-0.003-0.002-0.016-0.007-0.019-0.008-0.411-0.168-4.014-1.766-4.052-6.123-0.035-3.54 2.703-5.414 3.252-5.754l0.026-0.016c0.059-0.038 0.101-0.099 0.115-0.168s-0.001-0.142-0.041-0.2c-1.89-2.766-4.787-3.183-5.953-3.233-0.169-0.017-0.344-0.025-0.519-0.025-1.37 0-2.682 0.517-3.736 0.933-0.728 0.287-1.356 0.535-1.79 0.535-0.487 0-1.119-0.251-1.851-0.541-0.979-0.389-2.088-0.829-3.263-0.829-0.028 0-0.056 0-0.083 0.001-2.731 0.040-5.312 1.603-6.734 4.077z"></path>
<path d="M22.253 0c-1.654 0.067-3.638 1.085-4.823 2.474-1.008 1.167-1.992 3.114-1.733 5.076 0.016 0.123 0.116 0.218 0.24 0.227 0.112 0.009 0.226 0.013 0.339 0.013 1.617 0 3.362-0.895 4.553-2.335 1.254-1.521 1.888-3.473 1.696-5.222-0.015-0.137-0.136-0.239-0.271-0.233z"></path>
</symbol>
<symbol id="icon-bell" viewBox="0 0 32 32">
<path d="M29.238 26.991l-2.289-3.816c-1.057-1.761-1.616-3.779-1.616-5.832v-3.343c0-4.22-2.816-7.789-6.667-8.94v-2.393c0-1.471-1.196-2.667-2.667-2.667s-2.667 1.196-2.667 2.667v2.393c-3.851 1.151-6.667 4.72-6.667 8.94v3.343c0 2.053-0.559 4.069-1.615 5.831l-2.289 3.816c-0.124 0.207-0.127 0.463-0.008 0.672s0.339 0.339 0.579 0.339h25.333c0.24 0 0.461-0.129 0.58-0.337s0.115-0.467-0.008-0.672z"></path>
<path d="M11.801 29.333c0.752 1.571 2.344 2.667 4.199 2.667s3.447-1.096 4.199-2.667h-8.398z"></path>
</symbol>
<symbol id="icon-facebook" viewBox="0 0 32 32">
<path d="M18.466 10.485v-2.757c0-0.414 0.019-0.735 0.058-0.961s0.126-0.45 0.262-0.67c0.136-0.22 0.356-0.372 0.66-0.456s0.709-0.126 1.214-0.126h2.757v-5.514h-4.408c-2.55 0-4.382 0.605-5.495 1.815s-1.67 2.993-1.67 5.35v3.32h-3.301v5.515h3.301v16h6.622v-16h4.407l0.583-5.515h-4.99z"></path>
</symbol>
<symbol id="icon-hub" viewBox="0 0 32 32">
<path d="M24.889 23.111l-7.111-7.111v-5.653c2.062-0.747 3.556-2.702 3.556-5.013 0-2.951-2.382-5.333-5.333-5.333s-5.333 2.382-5.333 5.333c0 2.311 1.493 4.267 3.556 5.013v5.653l-7.111 7.111h-7.111v8.889h8.889v-5.422l7.111-7.467 7.111 7.467v5.422h8.889v-8.889h-7.111z"></path>
</symbol>
<symbol id="icon-linkedin" viewBox="0 0 32 32">
<path d="M0 10h7.156v22h-7.156v-22z"></path>
<path d="M26.648 10.258c-0.076-0.024-0.148-0.050-0.228-0.072-0.096-0.022-0.192-0.040-0.29-0.056-0.38-0.076-0.796-0.13-1.284-0.13-4.172 0-6.818 3.034-7.69 4.206v-4.206h-7.156v22h7.156v-12s5.408-7.532 7.69-2v14h7.154v-14.846c0-3.324-2.278-6.094-5.352-6.896z"></path>
<path d="M7 3.5c0 1.933-1.567 3.5-3.5 3.5s-3.5-1.567-3.5-3.5c0-1.933 1.567-3.5 3.5-3.5s3.5 1.567 3.5 3.5z"></path>
</symbol>
<symbol id="icon-share" viewBox="0 0 32 32">
<path d="M26.030 20.338c-1.853 0-3.487 0.883-4.554 2.234l-9.903-5.064c0.13-0.483 0.223-0.983 0.223-1.509 0-0.572-0.111-1.111-0.265-1.636l9.859-5.041c1.062 1.413 2.738 2.336 4.642 2.336 3.225 0 5.833-2.608 5.833-5.83 0-3.219-2.608-5.829-5.833-5.829-3.217 0-5.829 2.61-5.829 5.829 0 0.527 0.093 1.028 0.224 1.513l-9.901 5.064c-1.069-1.353-2.706-2.239-4.562-2.239-3.222 0-5.829 2.611-5.829 5.832s2.607 5.83 5.829 5.83c1.907 0 3.581-0.926 4.648-2.341l9.855 5.041c-0.154 0.523-0.267 1.066-0.267 1.64 0 3.22 2.611 5.83 5.829 5.83 3.225 0 5.833-2.61 5.833-5.83 0.002-3.223-2.607-5.832-5.832-5.832z"></path>
</symbol>
<symbol id="icon-star" viewBox="0 0 32 32">
<path d="M31.972 12.36c-0.068-0.207-0.247-0.359-0.463-0.39l-10.362-1.506-4.634-9.389c-0.096-0.196-0.296-0.32-0.513-0.32s-0.418 0.124-0.513 0.32l-4.634 9.39-10.362 1.506c-0.216 0.031-0.395 0.182-0.463 0.39-0.067 0.207-0.011 0.435 0.145 0.587l7.498 7.309-1.771 10.32c-0.037 0.215 0.052 0.432 0.227 0.56 0.177 0.129 0.411 0.146 0.603 0.044l9.269-4.872 9.268 4.872c0.084 0.044 0.176 0.066 0.267 0.066 0.119 0 0.237-0.037 0.337-0.109 0.176-0.128 0.265-0.345 0.227-0.56l-1.77-10.32 7.498-7.309c0.156-0.153 0.212-0.38 0.144-0.587z"></path>
</symbol>
<symbol id="icon-thumb" viewBox="0 0 32 32">
<path d="M0 30.545h5.818v-17.455h-5.818v17.455zM32 14.545c0-1.6-1.309-2.909-2.909-2.909h-9.164l1.455-6.691v-0.436c0-0.582-0.291-1.164-0.582-1.6l-1.6-1.455-9.6 9.6c-0.582 0.436-0.873 1.164-0.873 2.036v14.545c0 1.6 1.309 2.909 2.909 2.909h13.091c1.164 0 2.182-0.727 2.618-1.745l4.364-10.327c0.145-0.291 0.145-0.727 0.145-1.018v-2.909l0.145 0z"></path>
</symbol>
<symbol id="icon-twitter" viewBox="0 0 32 32">
<path d="M32 6.078c-1.19 0.522-2.458 0.868-3.78 1.036 1.36-0.812 2.398-2.088 2.886-3.626-1.268 0.756-2.668 1.29-4.16 1.588-1.204-1.282-2.92-2.076-4.792-2.076-3.632 0-6.556 2.948-6.556 6.562 0 0.52 0.044 1.020 0.152 1.496-5.454-0.266-10.28-2.88-13.522-6.862-0.566 0.982-0.898 2.106-0.898 3.316 0 2.272 1.17 4.286 2.914 5.452-1.054-0.020-2.088-0.326-2.964-0.808v0.072c0 3.188 2.274 5.836 5.256 6.446-0.534 0.146-1.116 0.216-1.72 0.216-0.42 0-0.844-0.024-1.242-0.112 0.85 2.598 3.262 4.508 6.13 4.57-2.232 1.746-5.066 2.798-8.134 2.798-0.538 0-1.054-0.024-1.57-0.090 2.906 1.874 6.35 2.944 10.064 2.944 12.072 0 18.672-10 18.672-18.668 0-0.29-0.010-0.57-0.024-0.848 1.302-0.924 2.396-2.078 3.288-3.406z"></path>
</symbol>
<symbol id="icon-download" viewBox="0 0 32 32">
<path d="M25.807 13.38c-0.907-4.587-4.953-8.047-9.807-8.047-3.853 0-7.193 2.187-8.867 5.38-4.007 0.433-7.133 3.827-7.133 7.953 0 4.42 3.58 8 8 8h17.333c3.68 0 6.667-2.987 6.667-6.667 0-3.52-2.74-6.373-6.193-6.62zM16 24l-6.667-6.667h4v-5.333h5.333v5.333h4l-6.667 6.667z"></path>
</symbol>
</defs>
</svg>
